#!OML:ASF H:\Dans Jumps\Project 1\Capture day 1\Session 1\subject.ASF
:FULLY-SPECIFIED
:DEGREES
322
root -0.0649819 13.8241 -15.1001 22.6624 1.86568 -0.373989
lowerback 35.6598 0.757019 -1.59091
upperback 3.96878 0.86077 3.22969
thorax -13.7616 0.521027 3.9986
lowerneck -24.6921 -0.0549328 -1.28144
upperneck 7.15674 0.55422 -1.63538
head 6.07942 0.0793517 -0.266264
rclavicle -1.19271e-015 -1.43125e-014
rhumerus -32.7412 1.75887 -76.6715
rradius 67.3325
rwrist 9.99864
rhand -23.7991 -28.1242
rfingers 7.12502
rthumb 2.67134 -58.0872
lclavicle -1.19271e-015 -1.43125e-014
lhumerus -34.5744 -8.16203 86.9835
lradius 58.9564
lwrist 40.2842
lhand -33.0378 -13.6675
lfingers 7.12502
lthumb -6.25066 16.2203
rfemur -71.9485 -4.778 21.5028
rtibia 88.1263
rfoot -33.9507 -15.6117
rtoes -9.1434
lfemur -71.9445 6.39153 -21.7275
ltibia 87.0134
lfoot -30.3476 16.8704
ltoes -14.7999
323
root -0.0649222 14.0311 -14.9663 21.9496 1.92281 -0.306574
lowerback 35.1415 0.729178 -1.65239
upperback 3.78386 0.809072 3.22525
thorax -13.7707 0.506675 4.05169
lowerneck -24.5286 -0.0525625 -1.2765
upperneck 7.72347 0.557613 -1.59347
head 6.24051 0.0796292 -0.253137
rclavicle 8.74653e-015 -1.74931e-014
rhumerus -33.212 2.38473 -76.4529
rradius 70.1619
rwrist 10.3965
rhand -23.769 -28.4817
rfingers 7.12502
rthumb 2.70044 -58.4443
lclavicle 8.74653e-015 -1.74931e-014
lhumerus -35.5388 -8.79451 86.8867
lradius 62.4028
lwrist 41.3341
lhand -32.9917 -13.9023
lfingers 7.12502
lthumb -6.20617 15.9868
rfemur -69.2605 -5.09607 21.4708
rtibia 85.9982
rfoot -33.6945 -15.4056
rtoes -9.43324
lfemur -69.2906 6.61505 -21.737
ltibia 84.9064
lfoot -29.9947 16.5269
ltoes -15.0514
324
root -0.0638963 14.2482 -14.8244 21.1598 1.96491 -0.248309
lowerback 34.6498 0.707904 -1.69115
upperback 3.61453 0.772165 3.21075
thorax -13.7696 0.496795 4.07481
lowerneck -24.3426 -0.0587442 -1.28778
upperneck 8.33882 0.552933 -1.53899
head 6.41424 0.0763303 -0.234271
rclavicle 4.37326e-015 1.55052e-014
rhumerus -33.8421 2.96338 -76.228
rradius 72.9729
rwrist 10.9641
rhand -23.7648 -28.7672
rfingers 7.12502
rthumb 2.7045 -58.7298
lclavicle 4.37326e-015 1.55052e-014
lhumerus -36.6581 -9.43664 86.7918
lradius 65.904
lwrist 42.6187
lhand -32.8493 -14.2193
lfingers 7.12502
lthumb -6.06876 15.6737
rfemur -66.3802 -5.4171 21.4234
rtibia 83.7051
rfoot -33.3699 -15.1351
rtoes -9.68554
lfemur -66.4682 6.88321 -21.7355
ltibia 82.6646
lfoot -29.5339 16.1215
ltoes -15.3513
325
root -0.0622442 14.4735 -14.6751 20.3348 1.99559 -0.194889
lowerback 34.1277 0.690473 -1.71652
upperback 3.4611 0.743685 3.18835
thorax -13.735 0.488903 4.07801
lowerneck -24.124 -0.0721835 -1.31487
upperneck 9.01861 0.543626 -1.48538
head 6.60443 0.0697018 -0.213722
rclavicle -1.03368e-014 -7.55382e-015
rhumerus -34.6195 3.50919 -76.0079
rradius 75.7342
rwrist 11.566
rhand -23.8274 -28.9832
rfingers 7.12502
rthumb 2.64408 -58.9466
lclavicle -1.03368e-014 -7.55382e-015
lhumerus -37.9165 -10.0709 86.6982
lradius 69.4039
lwrist 43.9008
lhand -32.6524 -14.425
lfingers 7.12502
lthumb -5.87865 15.4735
rfemur -63.3711 -5.74797 21.3661
rtibia 81.2578
rfoot -32.9582 -14.7942
rtoes -9.88376
lfemur -63.5398 7.19403 -21.7254
ltibia 80.2998
lfoot -28.9626 15.6218
ltoes -15.6624
326
root -0.0600929 14.7064 -14.5188 19.4914 2.03128 -0.13303
lowerback 33.5508 0.668206 -1.732
upperback 3.32442 0.71162 3.1587
thorax -13.6547 0.477769 4.06887
lowerneck -23.8699 -0.0985456 -1.35956
upperneck 9.77702 0.523991 -1.44074
head 6.8154 0.0558912 -0.194597
rclavicle 7.55382e-015 -1.15295e-014
rhumerus -35.5315 4.03139 -75.797
rradius 78.4169
rwrist 12.0969
rhand -23.9567 -29.1142
rfingers 7.12502
rthumb 2.51921 -59.079
lclavicle 7.55382e-015 -1.15295e-014
lhumerus -39.3035 -10.6991 86.614
lradius 72.8484
lwrist 44.9396
lhand -32.4977 -14.605
lfingers 7.12502
lthumb -5.72924 15.2976
rfemur -60.263 -6.11968 21.2969
rtibia 78.6646
rfoot -32.4351 -14.3822
rtoes -10.0215
lfemur -60.5359 7.53517 -21.7141
ltibia 77.8194
lfoot -28.2579 15.0034
ltoes -16.0069
327
root -0.0577724 14.946 -14.3563 18.6462 2.06755 -0.0578672
lowerback 32.8918 0.643187 -1.74929
upperback 3.20991 0.673849 3.11828
thorax -13.5102 0.462601 4.05052
lowerneck -23.5607 -0.140092 -1.41268
upperneck 10.5971 0.488268 -1.41073
head 7.03858 0.0320867 -0.180959
rclavicle 1.11319e-014 -7.15625e-015
rhumerus -36.5609 4.53192 -75.6072
rradius 80.998
rwrist 12.5093
rhand -24.1414 -29.1538
rfingers 7.12502
rthumb 2.34083 -59.1207
lclavicle 1.11319e-014 -7.15625e-015
lhumerus -40.8075 -11.3293 86.5413
lradius 76.1848
lwrist 45.5334
lhand -32.4987 -14.712
lfingers 7.12502
lthumb -5.73026 15.1905
rfemur -57.092 -6.53695 21.2126
rtibia 75.9381
rfoot -31.7726 -13.8897
rtoes -10.1165
lfemur -57.4884 7.91632 -21.7031
ltibia 75.2363
lfoot -27.4202 14.2163
ltoes -16.3346
328
root -0.0556199 15.1917 -14.1881 17.8539 2.11471 0.0459948
lowerback 32.0768 0.610154 -1.78197
upperback 3.11889 0.618983 3.06291
thorax -13.2667 0.438483 4.03015
lowerneck -23.1758 -0.196558 -1.47226
upperneck 11.4494 0.433799 -1.38703
head 7.26075 -0.001734 -0.170723
rclavicle 9.93923e-015 -1.82882e-014
rhumerus -37.6875 5.01489 -75.4467
rradius 83.4537
rwrist 12.8052
rhand -24.3411 -29.1345
rfingers 7.12502
rthumb 2.1479 -59.1035
lclavicle 9.93923e-015 -1.82882e-014
lhumerus -42.4158 -11.9668 86.4817
lradius 79.3708
lwrist 45.6029
lhand -32.6814 -14.7787
lfingers 7.12502
lthumb -5.90662 15.119
rfemur -53.9366 -7.01709 21.1044
rtibia 73.0917
rfoot -30.9438 -13.309
rtoes -10.1888
lfemur -54.4686 8.32047 -21.7038
ltibia 72.5594
lfoot -26.4418 13.2179
ltoes -16.6047
329
root -0.0543948 15.4431 -14.015 17.1335 2.17187 0.176941
lowerback 31.0825 0.573716 -1.84053
upperback 3.05212 0.550118 2.99181
thorax -12.9107 0.406863 4.01103
lowerneck -22.7092 -0.267499 -1.53162
upperneck 12.3249 0.356713 -1.35904
head 7.47759 -0.0458926 -0.161942
rclavicle 7.55382e-015 1.23246e-014
rhumerus -38.8993 5.47512 -75.3184
rradius 85.7653
rwrist 13.0577
rhand -24.5287 -29.0697
rfingers 7.12502
rthumb 1.96676 -59.0404
lclavicle 7.55382e-015 1.23246e-014
lhumerus -44.1198 -12.624 86.4421
lradius 82.3645
lwrist 45.1994
lhand -33.0612 -14.8477
lfingers 7.12502
lthumb -6.2733 15.0395
rfemur -50.8307 -7.55225 20.9696
rtibia 70.1358
rfoot -29.9256 -12.614
rtoes -10.2396
lfemur -51.5155 8.75393 -21.7093
ltibia 69.8023
lfoot -25.2935 11.9702
ltoes -16.8015
330
root -0.0541847 15.7006 -13.8373 16.508 2.23908 0.342128
lowerback 29.8795 0.53447 -1.93613
upperback 3.01277 0.465644 2.90157
thorax -12.4221 0.366757 3.99578
lowerneck -22.1556 -0.352297 -1.59482
upperneck 13.2013 0.254074 -1.30469
head 7.68028 -0.0993463 -0.146901
rclavicle -4.77083e-015 1.59028e-014
rhumerus -40.1802 5.91254 -75.2289
rradius 87.9227
rwrist 13.3212
rhand -24.6774 -28.9812
rfingers 7.12502
rthumb 1.8231 -58.9531
lclavicle -4.77083e-015 1.59028e-014
lhumerus -45.8959 -13.3039 86.4206
lradius 85.1349
lwrist 44.4926
lhand -33.5914 -14.9291
lfingers 7.12502
lthumb -6.7851 14.9421
rfemur -47.8325 -8.13744 20.7917
rtibia 67.1766
rfoot -28.7719 -11.7737
rtoes -10.2556
lfemur -48.6933 9.20992 -21.7247
ltibia 67.0742
lfoot -24.0192 10.4638
ltoes -16.8965
331
root -0.0551717 15.9654 -13.6555 15.9706 2.31959 0.537009
lowerback 28.4164 0.490761 -2.07606
upperback 3.33165 0.361522 2.66413
thorax -12.0602 0.348981 4.12247
lowerneck -21.5194 -0.441511 -1.65701
upperneck 14.0651 0.134757 -1.2162
head 7.86456 -0.156549 -0.122494
rclavicle -8.74653e-015 -1.74931e-014
rhumerus -41.5227 6.33577 -75.1805
rradius 89.9234
rwrist 13.6362
rhand -24.7489 -28.9596
rfingers 7.12502
rthumb 1.75407 -58.9322
lclavicle -8.74653e-015 -1.74931e-014
lhumerus -47.7211 -13.9989 86.4151
lradius 87.664
lwrist 43.732
lhand -34.177 -15.0382
lfingers 7.12502
lthumb -7.35043 14.8141
rfemur -44.9066 -8.75875 20.5622
rtibia 64.1178
rfoot -27.3992 -10.7253
rtoes -10.1991
lfemur -45.977 9.68239 -21.7408
ltibia 64.2807
lfoot -22.5069 8.66037
ltoes -16.8314
332
root -0.0569764 16.185 -13.4733 15.512 2.41171 0.75345
lowerback 26.8626 0.443624 -2.25042
upperback 3.30542 0.252232 2.55993
thorax -11.2688 0.28766 4.11493
lowerneck -20.8102 -0.52947 -1.71594
upperneck 14.8986 0.00466611 -1.09182
head 8.02561 -0.214157 -0.0875535
rclavicle -3.57812e-015 -7.95139e-016
rhumerus -42.9092 6.75361 -75.1754
rradius 91.7542
rwrist 14.0191
rhand -24.8259 -28.9569
rfingers 7.12502
rthumb 1.67976 -58.93
lclavicle -3.57812e-015 -7.95139e-016
lhumerus -49.568 -14.6945 86.423
lradius 89.9534
lwrist 43.163
lhand -34.7552 -15.1291
lfingers 7.12502
lthumb -7.90855 14.703
rfemur -42.2511 -9.39667 20.2675
rtibia 61.1748
rfoot -25.7745 -9.44028
rtoes -10.0553
lfemur -43.5856 10.1752 -21.7498
ltibia 61.6433
lfoot -20.6886 6.57899
ltoes -16.5911
